<svg xmlns="http://www.w3.org/2000/svg" xmlns:xlink="http://www.w3.org/1999/xlink" width="500" zoomAndPan="magnify" viewBox="0 0 375 374.999991" height="500" preserveAspectRatio="xMidYMid meet" version="1.0"><path fill="#ff8c9d" d="M 259.316406 129.132812 C 256.828125 124.648438 251.179688 122.492188 245.867188 122.492188 C 240.554688 122.492188 235.570312 123.984375 230.425781 124.980469 C 223.949219 126.144531 217.140625 126.476562 210.664062 125.644531 C 204.6875 124.980469 198.875 122.324219 192.898438 121.828125 C 180.773438 120.832031 168.15625 120 156.367188 123.320312 C 148.894531 125.480469 133.78125 130.128906 127.472656 143.246094 C 126.144531 146.070312 122.492188 153.707031 126.308594 160.351562 C 129.632812 165.996094 136.769531 167.824219 141.917969 167.324219 C 142.75 167.324219 151.050781 166.496094 153.375 161.179688 C 154.871094 157.695312 152.378906 155.203125 153.875 152.378906 C 155.367188 149.390625 159.851562 148.5625 164.003906 148.5625 C 156.199219 176.292969 142.085938 202.195312 122.65625 223.449219 C 119.167969 227.269531 115.515625 231.089844 114.355469 235.902344 C 113.027344 241.050781 114.851562 246.863281 118.835938 250.351562 C 122.824219 253.835938 128.800781 255 133.78125 253.339844 C 139.097656 251.511719 143.082031 246.863281 146.402344 242.378906 C 152.378906 234.574219 158.027344 226.273438 163.171875 217.804688 C 172.304688 202.859375 179.945312 186.753906 185.425781 170.148438 C 187.582031 163.835938 189.242188 157.363281 190.738281 150.886719 C 195.886719 151.714844 200.535156 152.546875 205.683594 153.210938 C 205.683594 153.210938 205.847656 153.210938 205.847656 153.210938 C 200.867188 163.503906 197.046875 174.132812 194.226562 185.09375 C 192.566406 191.402344 191.234375 197.710938 190.40625 204.023438 C 189.078125 212.65625 188.578125 221.625 190.738281 230.09375 C 192.898438 238.5625 198.210938 246.53125 206.015625 250.351562 C 214.816406 254.5 225.773438 252.675781 234.410156 248.027344 C 239.558594 245.203125 244.371094 241.050781 246.863281 235.570312 C 249.355469 230.09375 249.1875 223.285156 245.535156 218.632812 C 241.714844 213.984375 234.078125 212.65625 229.59375 216.640625 C 228.265625 217.804688 227.433594 219.132812 226.105469 220.128906 C 224.777344 221.125 222.953125 221.957031 221.457031 221.292969 C 218.964844 220.296875 218.964844 216.972656 219.300781 214.316406 C 222.121094 193.726562 227.433594 173.136719 234.90625 153.542969 C 237.398438 153.210938 239.890625 152.710938 242.546875 152.046875 C 247.859375 150.71875 253.171875 148.394531 256.828125 144.410156 C 260.480469 140.425781 261.972656 133.949219 259.316406 129.132812 Z M 259.316406 129.132812 " fill-opacity="1" fill-rule="nonzero"/><path fill="#e87288" d="M 221.957031 245.699219 C 220.628906 245.535156 219.132812 245.867188 217.804688 245.867188 C 216.308594 245.867188 214.816406 245.535156 213.488281 245.035156 C 210.664062 244.207031 208.007812 242.546875 205.683594 240.71875 C 201.035156 236.734375 197.878906 231.421875 194.558594 226.4375 C 194.058594 225.773438 193.0625 226.273438 193.394531 227.101562 C 196.550781 232.914062 200.035156 238.894531 205.351562 243.042969 C 207.675781 244.871094 210.5 246.367188 213.488281 247.195312 C 216.144531 248.027344 219.964844 248.523438 222.453125 247.03125 C 222.953125 246.699219 222.621094 245.699219 221.957031 245.699219 Z M 221.957031 245.699219 " fill-opacity="1" fill-rule="nonzero"/><path fill="#e87288" d="M 174.132812 188.578125 C 171.476562 193.230469 168.820312 197.878906 166.164062 202.695312 C 163.503906 207.34375 160.683594 211.992188 158.523438 216.972656 C 158.191406 217.636719 159.1875 218.300781 159.6875 217.636719 C 162.675781 213.15625 165.167969 208.339844 167.65625 203.523438 C 170.3125 198.875 172.804688 194.058594 175.296875 189.242188 C 175.628906 188.414062 174.464844 187.75 174.132812 188.578125 Z M 174.132812 188.578125 " fill-opacity="1" fill-rule="nonzero"/><path fill="#e87288" d="M 139.925781 158.523438 C 136.605469 159.023438 133.117188 158.191406 130.960938 155.535156 C 129.964844 154.207031 129.300781 152.546875 129.300781 151.050781 C 129.300781 150.222656 129.300781 149.390625 129.464844 148.5625 C 129.632812 147.730469 130.128906 146.898438 130.296875 145.902344 C 130.460938 145.238281 129.632812 144.90625 129.132812 145.238281 C 128.300781 145.902344 127.804688 147.066406 127.636719 148.0625 C 127.304688 149.058594 127.140625 150.054688 127.140625 151.050781 C 127.140625 153.210938 127.96875 155.367188 129.300781 157.03125 C 131.789062 160.183594 136.605469 161.679688 140.257812 159.6875 C 140.921875 159.355469 140.425781 158.523438 139.925781 158.523438 Z M 139.925781 158.523438 " fill-opacity="1" fill-rule="nonzero"/><path fill="#e87288" d="M 244.539062 126.144531 C 238.726562 127.140625 233.246094 129.632812 227.269531 130.460938 C 221.625 131.292969 215.644531 131.292969 210.167969 129.464844 C 209.335938 129.132812 209.003906 130.460938 209.832031 130.792969 C 215.3125 132.953125 221.125 133.285156 226.9375 132.453125 C 233.082031 131.625 239.558594 129.964844 245.035156 126.972656 C 245.535156 126.808594 245.035156 125.976562 244.539062 126.144531 Z M 244.539062 126.144531 " fill-opacity="1" fill-rule="nonzero"/></svg>