<svg xmlns="http://www.w3.org/2000/svg" xmlns:xlink="http://www.w3.org/1999/xlink" width="500" zoomAndPan="magnify" viewBox="0 0 375 374.999991" height="500" preserveAspectRatio="xMidYMid meet" version="1.0"><defs><clipPath id="0b72a9d59f"><path d="M 112.5 171 L 262.5 171 L 262.5 204 L 112.5 204 Z M 112.5 171 " clip-rule="nonzero"/></clipPath></defs><g clip-path="url(#0b72a9d59f)"><path fill="#ff8c9d" d="M 169.96875 171.835938 C 172.535156 171.835938 213.753906 173.019531 235.304688 171.160156 C 240.949219 170.648438 246.59375 171.667969 252.238281 171.328125 C 256 171.160156 259.761719 170.648438 261.472656 172.851562 C 262.5 174.035156 261.988281 175.222656 261.644531 178.609375 C 261.304688 183.859375 262.15625 183.859375 262.328125 194.1875 C 262.328125 199.097656 262.15625 199.945312 261.644531 200.792969 C 259.078125 204.179688 252.578125 203.332031 249.84375 202.992188 C 234.449219 201.300781 219.054688 202.824219 203.664062 202.652344 C 201.609375 202.652344 195.109375 202.652344 182.113281 202.824219 C 166.890625 202.992188 159.191406 202.992188 157.996094 202.992188 C 145.339844 203.671875 132.683594 202.484375 120.195312 203.5 C 118.828125 203.671875 115.066406 204.007812 113.527344 201.808594 C 112.5 200.453125 112.84375 198.929688 113.011719 196.726562 C 113.355469 191.984375 112.5 196.558594 112.84375 181.828125 C 113.011719 174.546875 113.355469 173.699219 114.039062 172.851562 C 116.261719 170.480469 120.027344 171.160156 124.300781 171.496094 C 131.484375 172.175781 138.839844 170.988281 146.023438 171.328125 C 154.0625 171.496094 161.929688 171.496094 169.96875 171.835938 Z M 169.96875 171.835938 " fill-opacity="1" fill-rule="nonzero"/></g><path fill="#e87288" d="M 259.421875 187.414062 C 259.421875 186.058594 259.59375 183.859375 258.222656 183.011719 C 257.882812 182.84375 257.367188 182.84375 257.027344 183.179688 C 256 184.027344 256.515625 185.890625 256.515625 187.074219 C 256.683594 188.429688 256.855469 189.785156 256.855469 191.140625 C 257.027344 193.003906 257.367188 195.710938 255.488281 197.066406 C 254.460938 197.742188 253.265625 197.914062 252.066406 197.914062 C 250.699219 197.914062 249.332031 197.914062 247.789062 197.914062 C 244.710938 197.914062 241.632812 197.914062 238.382812 197.914062 C 237.527344 197.914062 237.527344 199.265625 238.382812 199.265625 C 241.804688 199.4375 245.394531 199.605469 248.816406 199.777344 C 251.554688 199.777344 254.632812 200.285156 256.855469 198.25 C 258.738281 196.726562 259.078125 194.019531 259.078125 191.816406 C 259.59375 190.460938 259.421875 188.9375 259.421875 187.414062 Z M 259.421875 187.414062 " fill-opacity="1" fill-rule="nonzero"/><path fill="#e87288" d="M 235.648438 198.25 C 233.253906 197.914062 231.027344 197.742188 228.632812 197.742188 C 226.238281 197.742188 223.84375 197.574219 221.449219 197.914062 C 220.597656 198.082031 220.597656 199.4375 221.449219 199.605469 C 223.675781 200.113281 226.070312 199.945312 228.464844 199.945312 C 230.859375 199.945312 233.082031 199.777344 235.476562 199.4375 C 236.160156 199.4375 236.332031 198.421875 235.648438 198.25 Z M 235.648438 198.25 " fill-opacity="1" fill-rule="nonzero"/><path fill="#e87288" d="M 158.851562 173.867188 C 154.234375 173.191406 149.445312 173.191406 144.824219 173.191406 C 140.035156 173.191406 135.246094 173.191406 130.457031 173.359375 C 129.261719 173.359375 129.261719 175.222656 130.457031 175.222656 C 135.246094 175.390625 140.035156 175.390625 144.824219 175.390625 C 149.445312 175.390625 154.234375 175.5625 158.851562 174.882812 C 159.363281 174.882812 159.363281 174.035156 158.851562 173.867188 Z M 158.851562 173.867188 " fill-opacity="1" fill-rule="nonzero"/><path fill="#e87288" d="M 172.875 174.035156 C 172.191406 173.867188 171.507812 173.699219 170.652344 173.699219 C 169.96875 173.699219 169.285156 173.699219 168.429688 173.699219 C 167.0625 173.699219 165.523438 173.699219 164.152344 173.867188 C 162.957031 173.867188 162.957031 175.730469 164.152344 175.730469 C 165.523438 175.898438 167.0625 175.898438 168.429688 175.898438 C 169.113281 175.898438 169.796875 175.898438 170.652344 175.898438 C 171.335938 175.898438 172.191406 175.730469 172.875 175.390625 C 173.558594 175.222656 173.558594 174.207031 172.875 174.035156 Z M 172.875 174.035156 " fill-opacity="1" fill-rule="nonzero"/><path fill="#e87288" d="M 115.75 185.890625 C 115.578125 185.210938 114.722656 185.382812 114.550781 186.058594 C 114.382812 187.921875 114.382812 189.785156 114.382812 191.648438 C 114.382812 193.511719 114.382812 195.542969 115.066406 197.234375 C 115.238281 197.742188 116.089844 197.574219 116.261719 197.066406 C 116.777344 195.371094 116.605469 193.339844 116.433594 191.476562 C 116.433594 189.617188 116.261719 187.753906 115.75 185.890625 Z M 115.75 185.890625 " fill-opacity="1" fill-rule="nonzero"/></svg>