<svg xmlns="http://www.w3.org/2000/svg" xmlns:xlink="http://www.w3.org/1999/xlink" width="500" zoomAndPan="magnify" viewBox="0 0 375 374.999991" height="500" preserveAspectRatio="xMidYMid meet" version="1.0"><defs><clipPath id="7ae56d8c83"><path d="M 113 120 L 262 120 L 262 255.339844 L 113 255.339844 Z M 113 120 " clip-rule="nonzero"/></clipPath></defs><g clip-path="url(#7ae56d8c83)"><path fill="#ff8c9d" d="M 161.902344 138.425781 C 166.347656 141.269531 167.945312 141.800781 212.5625 161.523438 C 257.359375 181.070312 261.804688 183.023438 261.804688 187.109375 C 261.980469 194.039062 248.828125 195.996094 198.164062 221.226562 C 170.433594 235.085938 165.992188 237.21875 165.992188 237.21875 C 165.992188 237.21875 142.882812 248.945312 132.570312 253.207031 C 132.214844 253.386719 131.503906 253.742188 130.4375 254.097656 C 129.371094 254.628906 129.195312 254.628906 128.660156 254.808594 C 128.660156 254.808594 127.238281 255.339844 125.640625 255.339844 C 123.152344 255.164062 121.019531 251.253906 120.308594 249.300781 C 119.0625 245.921875 117.816406 243.082031 116.039062 239.882812 C 114.441406 237.039062 113.019531 233.664062 114.261719 230.464844 C 115.152344 228.332031 117.105469 226.734375 119.0625 225.3125 C 125.816406 220.691406 133.640625 217.671875 141.28125 214.652344 C 158.523438 208.078125 175.769531 201.324219 192.832031 194.75 C 194.433594 194.21875 195.855469 193.507812 197.097656 192.441406 C 198.699219 190.84375 199.054688 188 196.921875 186.933594 C 171.679688 174.851562 146.4375 162.769531 121.195312 150.683594 C 117.996094 149.265625 114.796875 147.488281 114.085938 144.289062 C 113.375 141.269531 115.328125 138.425781 116.574219 135.761719 C 117.816406 132.917969 118.707031 130.074219 120.128906 127.230469 C 121.195312 125.277344 122.617188 121.191406 125.105469 120.480469 C 128.304688 119.589844 131.683594 122.257812 133.285156 123.5 C 141.636719 130.074219 152.835938 132.738281 161.902344 138.425781 Z M 161.902344 138.425781 " fill-opacity="1" fill-rule="nonzero"/></g><path fill="#e87288" d="M 236.207031 198.125 C 231.585938 199.726562 227.140625 201.679688 222.875 203.8125 C 218.429688 205.945312 213.808594 207.898438 209.542969 210.386719 C 208.832031 210.742188 209.363281 211.984375 210.074219 211.808594 C 214.695312 210.210938 218.964844 208.078125 223.40625 205.945312 C 227.851562 203.8125 232.472656 201.859375 236.738281 199.371094 C 237.273438 198.835938 236.917969 197.949219 236.207031 198.125 Z M 236.207031 198.125 " fill-opacity="1" fill-rule="nonzero"/><path fill="#e87288" d="M 250.070312 191.375 C 246.695312 192.441406 243.316406 194.21875 240.117188 195.640625 C 239.761719 195.816406 239.582031 196.351562 239.761719 196.707031 C 239.9375 197.0625 240.472656 197.238281 240.828125 197.0625 C 244.027344 195.640625 247.40625 194.21875 250.425781 192.261719 C 250.960938 191.90625 250.605469 191.199219 250.070312 191.375 Z M 250.070312 191.375 " fill-opacity="1" fill-rule="nonzero"/><path fill="#e87288" d="M 132.214844 150.863281 C 133.640625 151.21875 135.238281 151.929688 136.660156 151.75 C 137.015625 151.75 137.195312 151.394531 136.839844 151.21875 C 135.949219 150.332031 134.707031 149.976562 133.640625 149.621094 C 132.394531 149.085938 131.148438 148.730469 129.90625 148.375 C 127.773438 147.664062 125.460938 146.953125 123.328125 146.066406 C 121.730469 145.175781 120.128906 143.933594 120.128906 141.980469 C 120.128906 139.492188 122.261719 138.070312 123.152344 136.117188 C 123.328125 135.761719 122.972656 135.226562 122.617188 135.582031 C 120.664062 136.648438 118.882812 139.136719 118.527344 141.445312 C 118.171875 143.757812 119.238281 145.710938 121.195312 146.953125 C 123.152344 148.375 125.640625 148.910156 127.773438 149.621094 C 129.195312 149.976562 130.792969 150.507812 132.214844 150.863281 Z M 132.214844 150.863281 " fill-opacity="1" fill-rule="nonzero"/><path fill="#e87288" d="M 145.726562 218.027344 C 138.261719 220.691406 130.972656 224.070312 123.507812 227.445312 C 122.796875 227.800781 123.328125 228.867188 124.039062 228.511719 C 131.503906 225.488281 138.972656 222.648438 146.257812 219.09375 C 146.792969 218.914062 146.4375 217.851562 145.726562 218.027344 Z M 145.726562 218.027344 " fill-opacity="1" fill-rule="nonzero"/></svg>