<svg xmlns="http://www.w3.org/2000/svg" xmlns:xlink="http://www.w3.org/1999/xlink" width="500" zoomAndPan="magnify" viewBox="0 0 375 374.999991" height="500" preserveAspectRatio="xMidYMid meet" version="1.0"><defs><clipPath id="dbb82cb1a4"><path d="M 113.316406 112.5 L 261.816406 112.5 L 261.816406 262.5 L 113.316406 262.5 Z M 113.316406 112.5 " clip-rule="nonzero"/></clipPath></defs><g clip-path="url(#dbb82cb1a4)"><path fill="#ff8c9d" d="M 261.03125 206.082031 C 261.203125 202.703125 261.710938 201.519531 260.863281 200.335938 C 259.171875 198.140625 255.621094 198.648438 251.734375 198.816406 C 246.152344 199.15625 240.574219 198.3125 234.996094 198.648438 C 225.019531 199.492188 210.984375 199.664062 198.472656 199.664062 C 205.238281 188.34375 208.617188 182.601562 209.800781 180.914062 C 210.308594 180.066406 210.816406 179.222656 211.324219 178.378906 C 224.003906 178.210938 236.6875 177.363281 249.199219 178.714844 C 252.070312 179.054688 258.496094 179.898438 260.863281 176.519531 C 261.539062 175.675781 261.710938 174.832031 261.539062 169.933594 C 261.371094 159.460938 260.527344 159.460938 260.863281 154.390625 C 261.03125 151.011719 261.539062 149.832031 260.695312 148.648438 C 259.003906 146.453125 255.453125 146.960938 251.566406 147.128906 C 245.984375 147.464844 240.40625 146.621094 234.824219 146.960938 C 233.304688 147.128906 231.445312 147.296875 229.753906 147.296875 C 231.613281 144.425781 233.472656 141.722656 235.671875 139.019531 C 237.53125 136.65625 241.925781 131.082031 240.40625 127.027344 C 240.066406 126.011719 239.390625 125.507812 235.164062 122.972656 C 226.203125 117.738281 225.695312 118.582031 221.46875 115.539062 C 218.59375 113.511719 217.917969 112.5 216.394531 112.667969 C 213.691406 113.007812 212 116.722656 210.140625 120.269531 C 207.265625 125.507812 203.378906 130.238281 200.671875 135.640625 C 198.8125 139.359375 196.613281 143.414062 194.078125 147.972656 C 181.734375 147.804688 171.757812 147.636719 170.574219 147.636719 C 162.628906 147.464844 154.683594 147.296875 146.734375 146.960938 C 139.632812 146.621094 132.363281 147.804688 125.261719 147.128906 C 121.203125 146.789062 117.316406 146.113281 115.117188 148.480469 C 114.273438 149.324219 114.101562 150.167969 113.933594 157.433594 C 113.425781 172.128906 114.441406 167.566406 114.101562 172.296875 C 113.933594 174.492188 113.597656 176.011719 114.609375 177.363281 C 116.300781 179.5625 120.019531 179.222656 121.203125 179.054688 C 133.546875 178.039062 146.058594 179.222656 158.570312 178.546875 C 159.753906 178.546875 165.164062 178.378906 175.816406 178.378906 C 170.070312 187.5 165.839844 194.257812 165.164062 195.269531 C 164.320312 196.453125 163.644531 197.804688 162.796875 198.988281 C 157.386719 198.816406 152.144531 198.816406 146.734375 198.648438 C 139.632812 198.3125 132.363281 199.492188 125.261719 198.816406 C 121.203125 198.480469 117.316406 197.804688 115.117188 200.167969 C 114.273438 201.011719 114.101562 201.859375 113.933594 209.121094 C 113.425781 223.816406 114.441406 219.257812 114.101562 223.988281 C 113.933594 226.183594 113.597656 227.703125 114.609375 229.054688 C 116.300781 231.25 120.019531 230.914062 121.203125 230.742188 C 128.644531 230.066406 136.082031 230.238281 143.523438 230.40625 C 142.339844 232.601562 140.988281 234.628906 139.464844 236.65625 C 136.761719 240.203125 134.222656 243.414062 134.898438 246.621094 C 135.238281 247.804688 135.746094 248.480469 141.832031 252.535156 C 154.175781 260.640625 150.792969 257.261719 154.683594 260.136719 C 156.542969 261.488281 157.726562 262.5 159.246094 262.332031 C 161.953125 261.992188 163.8125 258.277344 164.320312 257.09375 C 169.054688 247.804688 174.972656 239.1875 180.382812 230.238281 C 181.058594 230.238281 181.566406 230.238281 182.242188 230.238281 C 195.09375 230.066406 201.515625 230.066406 203.546875 230.066406 C 218.761719 230.238281 234.148438 228.714844 249.199219 230.40625 C 252.070312 230.742188 258.496094 231.585938 260.863281 228.210938 C 261.539062 227.363281 261.710938 226.519531 261.539062 221.621094 C 261.539062 211.316406 260.695312 211.316406 261.03125 206.082031 Z M 261.03125 206.082031 " fill-opacity="1" fill-rule="nonzero"/></g><path fill="#e87288" d="M 145.214844 149.492188 C 143.859375 148.988281 142 149.324219 140.480469 149.324219 C 138.789062 149.324219 137.265625 149.492188 135.578125 149.492188 C 132.363281 149.664062 128.980469 149.832031 125.769531 150.167969 C 124.753906 150.335938 124.753906 151.859375 125.769531 151.859375 C 128.980469 151.859375 132.363281 151.6875 135.578125 151.6875 C 137.265625 151.6875 138.789062 151.519531 140.480469 151.351562 C 142 151.183594 143.691406 151.351562 145.214844 150.675781 C 145.722656 150.507812 145.722656 149.832031 145.214844 149.492188 Z M 145.214844 149.492188 " fill-opacity="1" fill-rule="nonzero"/><path fill="#e87288" d="M 257.3125 167.566406 C 257.3125 166.386719 257.144531 165.371094 257.144531 164.1875 C 257.144531 163.175781 257.144531 161.992188 256.804688 160.980469 C 256.46875 160.304688 255.285156 160.136719 255.117188 160.980469 C 254.945312 161.992188 254.945312 162.835938 255.117188 163.851562 C 255.285156 164.863281 255.285156 165.878906 255.453125 166.722656 C 255.621094 167.738281 255.621094 168.75 255.792969 169.59375 C 255.960938 170.4375 256.128906 171.113281 255.960938 171.960938 C 255.792969 172.804688 255.285156 172.972656 254.609375 173.140625 C 253.59375 173.140625 252.578125 173.140625 251.734375 173.140625 C 249.703125 173.140625 247.84375 173.3125 245.816406 173.480469 C 244.96875 173.480469 244.96875 174.832031 245.816406 174.832031 C 248.015625 174.832031 250.210938 174.832031 252.410156 174.832031 C 254.101562 174.832031 256.296875 175 257.144531 173.140625 C 257.480469 172.464844 257.480469 171.621094 257.480469 170.777344 C 257.480469 169.761719 257.3125 168.582031 257.3125 167.566406 Z M 257.3125 167.566406 " fill-opacity="1" fill-rule="nonzero"/><path fill="#e87288" d="M 233.472656 201.6875 C 230.769531 201.183594 227.894531 201.6875 225.1875 201.859375 C 222.3125 202.027344 219.609375 202.363281 216.734375 202.535156 C 215.71875 202.703125 215.71875 204.222656 216.734375 204.054688 C 219.609375 203.886719 222.484375 203.886719 225.1875 203.714844 C 227.894531 203.546875 230.9375 203.714844 233.472656 202.871094 C 233.980469 202.703125 234.148438 201.6875 233.472656 201.6875 Z M 233.472656 201.6875 " fill-opacity="1" fill-rule="nonzero"/><path fill="#e87288" d="M 243.617188 201.183594 C 243.449219 201.011719 243.109375 201.011719 242.941406 201.011719 C 242.773438 201.011719 242.601562 200.84375 242.433594 200.84375 C 242.265625 200.84375 242.265625 200.84375 242.097656 200.84375 C 241.589844 200.84375 241.082031 200.84375 240.574219 200.84375 C 239.558594 200.84375 238.546875 201.011719 237.53125 201.011719 C 237.023438 201.011719 236.6875 201.351562 236.6875 201.859375 C 236.6875 202.363281 237.023438 202.703125 237.53125 202.703125 C 238.546875 202.703125 239.558594 202.703125 240.574219 202.703125 C 241.082031 202.703125 241.589844 202.703125 242.097656 202.535156 C 242.265625 202.535156 242.433594 202.535156 242.601562 202.535156 C 242.773438 202.535156 242.941406 202.363281 242.941406 202.363281 C 243.109375 202.363281 243.449219 202.195312 243.617188 202.195312 C 244.292969 202.027344 244.125 201.351562 243.617188 201.183594 Z M 243.617188 201.183594 " fill-opacity="1" fill-rule="nonzero"/><path fill="#e87288" d="M 156.203125 253.886719 C 154.007812 252.703125 151.640625 251.6875 149.273438 250.507812 C 147.074219 249.324219 144.707031 247.972656 142.675781 246.621094 C 142 246.113281 141.324219 247.128906 141.832031 247.636719 C 143.859375 249.324219 146.058594 250.84375 148.425781 252.027344 C 150.625 253.210938 153.160156 254.5625 155.695312 254.898438 C 156.375 254.898438 156.710938 254.222656 156.203125 253.886719 Z M 156.203125 253.886719 " fill-opacity="1" fill-rule="nonzero"/><path fill="#e87288" d="M 211.832031 126.351562 C 211.324219 126.519531 210.984375 127.027344 210.648438 127.535156 C 210.308594 128.039062 210.140625 128.546875 209.800781 129.054688 C 209.125 130.066406 208.617188 131.25 207.941406 132.261719 C 207.433594 133.277344 206.757812 134.289062 206.25 135.472656 C 205.746094 136.488281 205.066406 137.667969 204.730469 138.851562 C 204.5625 139.527344 205.40625 140.035156 205.914062 139.527344 C 206.589844 138.683594 207.265625 137.5 207.773438 136.488281 C 208.449219 135.472656 208.957031 134.289062 209.632812 133.277344 C 210.140625 132.261719 210.816406 131.082031 211.324219 130.066406 C 211.660156 129.5625 211.832031 129.054688 212.167969 128.378906 C 212.339844 127.871094 212.84375 127.363281 212.507812 126.859375 C 212.339844 126.519531 212 126.351562 211.832031 126.351562 Z M 211.832031 126.351562 " fill-opacity="1" fill-rule="nonzero"/><path fill="#e87288" d="M 126.109375 201.6875 C 125.261719 201.6875 124.25 201.519531 123.402344 201.519531 C 122.558594 201.519531 121.542969 201.519531 120.699219 201.519531 C 119.175781 201.519531 117.652344 201.6875 116.976562 203.378906 C 116.808594 204.054688 116.808594 204.898438 116.808594 205.742188 C 116.808594 206.585938 116.640625 207.433594 116.640625 208.445312 C 116.640625 209.289062 116.46875 210.136719 116.640625 211.148438 C 116.640625 211.65625 116.640625 211.992188 116.640625 212.5 C 116.640625 213.007812 116.808594 213.511719 116.976562 213.851562 C 117.148438 214.359375 117.652344 214.1875 117.824219 213.851562 C 117.992188 213.511719 118.160156 213.175781 118.160156 212.667969 C 118.160156 212.332031 118.332031 211.824219 118.332031 211.488281 C 118.332031 210.640625 118.5 209.964844 118.5 209.121094 C 118.5 207.601562 118.5 206.082031 118.667969 204.5625 C 118.667969 204.054688 118.835938 203.714844 119.34375 203.546875 C 120.019531 203.378906 120.699219 203.378906 121.375 203.378906 C 122.21875 203.378906 123.066406 203.378906 123.742188 203.378906 C 124.585938 203.210938 125.429688 203.210938 126.109375 203.210938 C 126.785156 202.871094 126.785156 201.6875 126.109375 201.6875 Z M 126.109375 201.6875 " fill-opacity="1" fill-rule="nonzero"/></svg>